<svg width="800" height="800" viewBox="0 0 800 800" fill="none" xmlns="http://www.w3.org/2000/svg">
<g clip-path="url(#clip0_657_19)">
<path fill-rule="evenodd" clip-rule="evenodd" d="M600 400C572.4 400 550 377.6 550 350C550 322.4 572.4 300 600 300C627.6 300 650 322.4 650 350C650 377.6 627.6 400 600 400ZM400 400C372.4 400 350 377.6 350 350C350 322.4 372.4 300 400 300C427.6 300 450 322.4 450 350C450 377.6 427.6 400 400 400ZM200 400C172.4 400 150 377.6 150 350C150 322.4 172.4 300 200 300C227.6 300 250 322.4 250 350C250 377.6 227.6 400 200 400ZM400 0C179.1 0 0 156.725 0 350C0 460.475 58.625 558.85 150 622.975V800L325.225 693.675C349.475 697.675 374.425 700 400 700C620.9 700 800 543.3 800 350C800 156.725 620.9 0 400 0Z" fill="#808080"/>
</g>
<defs>
<clipPath id="clip0_657_19">
<rect width="800" height="800" fill="white"/>
</clipPath>
</defs>
</svg>
