<svg width="800" height="800" viewBox="0 0 800 800" fill="none" xmlns="http://www.w3.org/2000/svg">
<path fill-rule="evenodd" clip-rule="evenodd" d="M414.607 92.6136C409.77 91.0602 404.483 91.4369 399.993 93.6012C395.077 95.9709 391.827 100.107 390.657 104.607L374.8 165.735C369.257 187.113 361.18 207.733 350.783 227.2C334.64 257.422 310.211 280.667 287.549 300.195L239.591 341.52C232.158 347.927 228.247 357.527 229.094 367.327L256.166 680.417C257.534 696.233 270.748 708.333 286.545 708.333H441.5C546.043 708.333 634.127 635.59 651.02 537.903L674.537 401.913C677.773 383.197 663.38 366.14 644.493 366.14H471.79C439.22 366.14 414.48 336.92 419.737 304.824L441.827 170.005C444.853 151.538 443.99 132.641 439.29 114.528C436.907 105.336 429.653 97.4472 419.44 94.1659L414.607 92.6136ZM378.287 48.5579C394.373 40.8066 412.91 39.5512 429.9 45.0096L434.733 46.5619C460.633 54.8826 480.84 75.5729 487.69 101.973C494.137 126.826 495.32 152.752 491.17 178.089L469.08 312.908C468.797 314.633 470.127 316.14 471.79 316.14H644.493C694.47 316.14 732.317 361.217 723.807 410.433L700.29 546.427C679.027 669.367 569.04 758.333 441.5 758.333H286.545C244.757 758.333 209.951 726.34 206.352 684.723L179.28 371.633C177.05 345.843 187.341 320.544 206.952 303.644L254.91 262.318C276.75 243.497 295.135 225.256 306.681 203.641C315.233 187.631 321.858 170.702 326.403 153.181L342.26 92.0522C347.233 72.8756 360.553 57.1029 378.287 48.5579ZM98.9223 316.163C112.298 315.586 123.754 325.648 124.907 338.987L157.294 713.537C159.374 737.597 140.423 758.333 116.224 758.333C93.4297 758.333 75 739.843 75 717.09V341.14C75 327.752 85.5467 316.74 98.9223 316.163Z" fill="#808080"/>
</svg>
