<?xml version="1.0" encoding="UTF-8"?>
<svg version="1.1" xmlns="http://www.w3.org/2000/svg" width="1200" height="1200">
<path d="M0 0 C1.37043457 0.1853833 1.37043457 0.1853833 2.76855469 0.37451172 C32.40093561 4.47493343 60.98715023 13.20966053 88 26 C88.6801416 26.32081543 89.3602832 26.64163086 90.06103516 26.97216797 C113.24214139 37.99985537 134.8016694 51.93481725 154 69 C155.04414062 69.8971875 155.04414062 69.8971875 156.109375 70.8125 C173.29299598 85.58189324 173.29299598 85.58189324 180.359375 94.0546875 C181.49849031 95.40535279 182.6793526 96.72146123 183.890625 98.0078125 C234.24653491 151.5342797 260.27685904 229.35467742 258.109375 302.23632812 C254.83127717 385.06683582 220.28040905 459.30877874 160 516 C156.43202835 519.13608512 152.74578394 522.08026272 149 525 C147.94514613 525.85496223 146.89182817 526.71182204 145.83984375 527.5703125 C85.03584775 576.83777666 6.00665645 598.23142592 -71.45947266 590.40234375 C-91.44887181 588.13075847 -110.83277389 584.0858837 -130 578 C-131.33297119 577.57847656 -131.33297119 577.57847656 -132.69287109 577.1484375 C-179.19415155 562.19816668 -226.84420225 533.8484531 -258.39453125 495.91015625 C-259.5195375 494.57164517 -260.68812662 493.26913259 -261.88671875 491.99609375 C-281.16666032 471.50447378 -295.60951917 447.09278724 -308 422 C-308.37608398 421.24460937 -308.75216797 420.48921875 -309.13964844 419.7109375 C-323.39745713 390.68659078 -331.67290883 358.04996084 -335 326 C-335.14139404 324.68080566 -335.14139404 324.68080566 -335.28564453 323.33496094 C-340.17991084 272.36104598 -331.66814569 220.75744435 -311 174 C-310.60941406 173.11570312 -310.21882813 172.23140625 -309.81640625 171.3203125 C-299.06528771 147.28010645 -285.08330873 125.05056134 -268 105 C-267.11241755 103.92779773 -266.22574611 102.85484086 -265.33984375 101.78125 C-255.16478985 89.55585567 -244.14468268 77.87437538 -231.6015625 68.05078125 C-229.83116575 66.65519822 -228.09719608 65.2124188 -226.3984375 63.73046875 C-185.73780098 28.28126593 -131.88432118 7.46178704 -79 0 C-78.19626953 -0.11714355 -77.39253906 -0.23428711 -76.56445312 -0.35498047 C-51.73091509 -3.81092983 -24.80123452 -3.53955585 0 0 Z M-170.12060547 40.01757812 C-171.9686078 40.98359025 -173.82800816 41.92347131 -175.69140625 42.859375 C-197.78250905 54.10266535 -219.31901941 69.64252509 -236.52734375 87.52734375 C-238 89 -238 89 -241 91.4375 C-244.01719009 94.0146832 -246.47386099 96.71129587 -249.03515625 99.7265625 C-251.18735873 102.21678485 -253.43525174 104.60000425 -255.6875 107 C-297.40758856 152.83512005 -324.90028 219.3891165 -325.203125 281.4140625 C-325.21013931 282.37854813 -325.21715363 283.34303375 -325.22438049 284.33674622 C-325.24179294 287.43287882 -325.24823293 290.52882023 -325.25 293.625 C-325.25067474 294.68212189 -325.25134949 295.73924377 -325.25204468 296.82839966 C-325.23651614 312.11646327 -324.85089138 326.94022239 -322 342 C-321.83371094 342.94601074 -321.66742188 343.89202148 -321.49609375 344.86669922 C-312.9612808 392.98565853 -292.20346897 438.37662429 -261 476 C-260.55543457 476.5460791 -260.11086914 477.0921582 -259.65283203 477.65478516 C-247.90818874 492.05780183 -234.80591934 505.72982259 -220 517 C-218.71648619 518.01049838 -217.43401794 519.02232559 -216.15234375 520.03515625 C-156.87811836 566.5458028 -81.63385161 587.97987155 -6.6875 579.8125 C46.41753747 573.29513557 97.39982991 552.80282694 139 519 C139.88075195 518.28481201 139.88075195 518.28481201 140.77929688 517.55517578 C144.58396648 514.44236333 148.31406315 511.25229722 152 508 C152.53044922 507.53271484 153.06089844 507.06542969 153.60742188 506.58398438 C166.78821227 494.89058209 178.42656342 482.08230446 189 468 C189.51030762 467.3301709 190.02061523 466.6603418 190.54638672 465.97021484 C234.73043695 407.78805566 254.42456353 332.24047558 245.47167969 259.79907227 C239.33008404 215.18553135 224.38278409 170.87394206 198 134 C197.2258374 132.91452881 197.2258374 132.91452881 196.43603516 131.80712891 C187.34856165 119.1102039 187.34856165 119.1102039 177.16015625 107.30078125 C175.29490185 105.3140998 173.51084415 103.28861746 171.73046875 101.2265625 C162.42806391 90.55823492 152.22807648 80.61862975 141 72 C139.73754054 70.99832869 138.47588173 69.99564778 137.21484375 68.9921875 C56.2607622 5.13191946 -53.8346034 -8.51631305 -170.12060547 40.01757812 Z " fill="#EEEEEE" transform="translate(638,304)"/>
<path d="M0 0 C1.04462402 -0.00525696 2.08924805 -0.01051392 3.16552734 -0.01593018 C6.61050471 -0.02910862 10.05501812 -0.02039941 13.5 -0.01025391 C15.8984384 -0.01227525 18.2968762 -0.0151872 20.6953125 -0.01895142 C25.7188096 -0.02337186 30.74214653 -0.01695251 35.765625 -0.00292969 C42.20178985 0.0141618 48.63757938 0.00431915 55.07373047 -0.01364708 C60.02541934 -0.02449232 64.97701937 -0.02103512 69.92871094 -0.0132637 C72.30175827 -0.01126376 74.67481368 -0.01371374 77.04785156 -0.02070236 C80.36545147 -0.02832875 83.68244519 -0.01669524 87 0 C87.97888184 -0.00607269 88.95776367 -0.01214539 89.96630859 -0.0184021 C95.23092375 0.03062971 98.95325999 0.42464695 103.5 3.38818359 C105.14453125 5.29052734 105.14453125 5.29052734 106.3125 7.32568359 C106.71082031 7.99470703 107.10914063 8.66373047 107.51953125 9.35302734 C108.48616611 11.35946862 109.04750124 13.21327018 109.5 15.38818359 C111.4490625 15.26443359 111.4490625 15.26443359 113.4375 15.13818359 C118.78935879 15.14662501 122.96459115 16.57404437 127.5 19.38818359 C131.72957379 23.72620799 133.79314787 27.70039404 133.9375 33.76318359 C133.88067113 37.62754644 133.60521225 39.99888434 131.125 43.01318359 C126.75805454 46.96422948 124.20375247 46.4801796 118.5 46.38818359 C118.4293933 46.94518479 118.3587866 47.50218599 118.28604031 48.07606602 C115.2717242 71.75444182 111.74769088 95.35473533 108.23022461 118.96264648 C107.44614375 124.2304694 106.66954866 129.49930688 105.90014648 134.76928711 C104.96214909 141.19075902 104.0107769 147.61011484 103.04978752 154.02818489 C102.68831013 156.45749196 102.33150021 158.88749852 101.97955513 161.31820488 C101.4882183 164.70483379 100.97969776 168.08846598 100.46704102 171.47192383 C100.25723854 172.95952965 100.25723854 172.95952965 100.04319763 174.47718811 C99.01941192 181.0695559 97.52967084 187.31942023 92.68359375 192.22802734 C92.10738281 192.59025391 91.53117188 192.95248047 90.9375 193.32568359 C90.06931641 193.89609375 90.06931641 193.89609375 89.18359375 194.47802734 C85.12361477 196.67286517 81.23881673 196.54898215 76.7590332 196.56518555 C75.57796242 196.57504234 75.57796242 196.57504234 74.37303162 196.58509827 C71.76561383 196.60481757 69.15825367 196.61649219 66.55078125 196.62646484 C65.65884756 196.63054037 64.76691387 196.6346159 63.84795189 196.63881493 C59.12495531 196.65967208 54.40198774 196.67397406 49.67895508 196.68334961 C44.811107 196.69439977 39.94371784 196.7287845 35.07603168 196.76852131 C31.32438839 196.79472562 27.57285369 196.80304494 23.82112694 196.80663109 C22.02745663 196.81148895 20.2337909 196.82308006 18.44021034 196.84166908 C15.92242221 196.86613722 13.40581121 196.86508163 10.88793945 196.8581543 C9.78801163 196.87736938 9.78801163 196.87736938 8.66586304 196.89697266 C1.76275136 196.82816358 -3.38875135 194.45251561 -8.3125 189.63818359 C-16.03410844 177.31958102 -15.63274315 155.73300904 -17.73046875 141.68115234 C-18.12927152 139.0207062 -18.52882483 136.36037287 -18.92829895 133.70002747 C-19.75983596 128.15912976 -20.58902745 122.61788504 -21.41674805 117.07641602 C-22.37311095 110.67389267 -23.33317633 104.27193266 -24.2951805 97.8702547 C-25.22468057 91.68435575 -26.15169703 85.49808715 -27.07753944 79.31163979 C-27.47046529 76.6876141 -27.86400637 74.06368047 -28.25816917 71.43984032 C-28.80602418 67.79037161 -29.35104315 64.14049072 -29.89526367 60.49047852 C-30.14066391 58.8612294 -30.14066391 58.8612294 -30.39102173 57.19906616 C-30.53814102 56.20836624 -30.68526031 55.21766632 -30.83683777 54.19694519 C-30.9656795 53.3355704 -31.09452124 52.47419561 -31.22726727 51.58671856 C-31.5 49.38818359 -31.5 49.38818359 -31.5 46.38818359 C-33.294375 46.54287109 -33.294375 46.54287109 -35.125 46.70068359 C-38.54149487 46.71888872 -40.30238403 46.19949636 -42.9375 44.01318359 C-46.98760393 39.86429664 -46.90635588 36.921465 -46.83984375 31.28271484 C-46.30850399 26.75716588 -44.61207696 23.67875874 -41.5 20.38818359 C-36.96855581 16.97720591 -32.46999531 15.24369091 -26.8125 15.32568359 C-25.60013672 15.33921875 -25.60013672 15.33921875 -24.36328125 15.35302734 C-23.44095703 15.37042969 -23.44095703 15.37042969 -22.5 15.38818359 C-22.2525 14.52193359 -22.005 13.65568359 -21.75 12.76318359 C-20.02055097 8.0936712 -18.23382322 4.54076456 -14.015625 1.73666382 C-9.26007534 -0.08741147 -5.05110008 -0.03133553 0 0 Z M-11.27363777 11.29366779 C-12.66842418 13.27131518 -12.66842418 13.27131518 -12.5 15.38818359 C24.46 15.38818359 61.42 15.38818359 99.5 15.38818359 C98.04711014 10.8039873 98.04711014 10.8039873 96.5 9.38818359 C95.128317 9.28417376 93.75136282 9.24857968 92.37576294 9.24101257 C91.48682343 9.23385727 90.59788391 9.22670197 89.68200684 9.21932983 C88.69913696 9.21664093 87.71626709 9.21395203 86.70361328 9.21118164 C85.67440765 9.20461044 84.64520203 9.19803925 83.58480835 9.19126892 C80.1633091 9.17148338 76.7418538 9.15986254 73.3203125 9.14990234 C72.15552242 9.14582682 70.99073235 9.14175129 69.7906456 9.13755226 C63.62752203 9.11667052 57.46442087 9.1023771 51.30126953 9.09301758 C44.91956732 9.08194 38.53821254 9.04753024 32.15663338 9.00784588 C27.26341074 8.98176382 22.37027198 8.9733333 17.47698593 8.9697361 C15.12376429 8.96484948 12.77054689 8.95317708 10.41739273 8.9346981 C7.12970291 8.91048247 3.84292651 8.91123951 0.55517578 8.91821289 C-0.42364563 8.90540283 -1.40246704 8.89259277 -2.41094971 8.87939453 C-3.30552887 8.88633835 -4.20010803 8.89328217 -5.12179565 8.9004364 C-5.89941191 8.89804805 -6.67702816 8.89565969 -7.47820854 8.89319897 C-9.68505628 9.23742261 -9.68505628 9.23742261 -11.27363777 11.29366779 Z M-37.5 29.38818359 C-38.64449841 32.97174016 -38.64449841 32.97174016 -38.5 36.38818359 C-35.72415187 39.16403173 -34.08865075 38.6396555 -30.19873047 38.64215088 C-29.54506437 38.64527086 -28.89139828 38.64839084 -28.21792412 38.65160537 C-26.01758808 38.6596118 -23.81752581 38.65325161 -21.6171875 38.64697266 C-20.04380125 38.64968135 -18.47041626 38.6532416 -16.89703369 38.65759277 C-12.61613117 38.66673353 -8.33532473 38.66316561 -4.05442047 38.6568346 C0.41831223 38.65178331 4.89103652 38.65646362 9.36376953 38.65960693 C16.87599164 38.66324913 24.38817447 38.65844085 31.90039062 38.64892578 C40.59480245 38.63804074 49.28912049 38.64156614 57.98353004 38.65257859 C65.43832517 38.66164427 72.893092 38.66294028 80.34789085 38.65770125 C84.80471713 38.65457758 89.26149928 38.65418306 93.71832275 38.66077423 C97.90764015 38.66653663 102.09683621 38.66257121 106.28614044 38.65098572 C107.82690479 38.64833318 109.36767928 38.64911428 110.90843964 38.65351105 C113.00534277 38.65894473 115.10185266 38.65215938 117.19873047 38.64215088 C118.37418427 38.64139683 119.54963806 38.64064278 120.76071167 38.63986588 C123.64523933 38.66924119 123.64523933 38.66924119 125.5 36.38818359 C125.5 32.17109743 124.99539635 30.00363774 122.3347168 26.69815063 C117.17794012 22.69722495 110.34778762 23.69326108 104.14453125 23.74121094 C102.67555661 23.73443072 101.20659049 23.72552531 99.73764038 23.71466064 C95.75816801 23.6919082 91.77934532 23.70068643 87.79986191 23.71655607 C83.63063589 23.72923629 79.46146459 23.71746908 75.29223633 23.70962524 C68.29140256 23.70053483 61.29083273 23.71250051 54.29003906 23.73632812 C46.20210397 23.76353842 38.11479913 23.75472381 30.02687931 23.7271961 C23.07634883 23.70448858 16.12600783 23.70131292 9.17545223 23.71438944 C5.02698883 23.722175 0.87882145 23.72325043 -3.2696228 23.706707 C-7.17034708 23.69223735 -11.07026075 23.70232836 -14.97089767 23.73117828 C-16.40031973 23.73777594 -17.82981029 23.73591388 -19.25920486 23.72486496 C-29.66958208 23.43178319 -29.66958208 23.43178319 -37.5 29.38818359 Z M-22.5 46.38818359 C-22.35835248 53.62887937 -22.35835248 53.62887937 -20.5 60.38818359 C21.74 60.38818359 63.98 60.38818359 107.5 60.38818359 C109.68077538 52.11128512 109.68077538 52.11128512 109.5 46.38818359 C65.94 46.38818359 22.38 46.38818359 -22.5 46.38818359 Z M-19.5 69.38818359 C-15.68597294 96.41810386 -11.8410454 123.43714597 -7.5 150.38818359 C-4.86 150.38818359 -2.22 150.38818359 0.5 150.38818359 C-0.12808638 141.50716711 -1.48552753 132.78664506 -2.96875 124.01708984 C-3.2118569 122.5627093 -3.45464894 121.10827609 -3.69714355 119.65379333 C-4.20234309 116.6287164 -4.7101948 113.60410186 -5.22021484 110.57983398 C-5.87308926 106.70813212 -6.52092632 102.83560889 -7.16701508 98.96276951 C-7.66664683 95.96940779 -8.16804086 92.97634358 -8.6700592 89.98338127 C-8.9096125 88.55491784 -9.14882307 87.12639688 -9.38768005 85.69781685 C-9.72098579 83.70703867 -10.05672768 81.71666882 -10.39257812 79.72631836 C-10.58275513 78.59589615 -10.77293213 77.46547394 -10.96887207 76.30079651 C-11.3955243 73.96111011 -11.88350137 71.68347927 -12.5 69.38818359 C-14.81 69.38818359 -17.12 69.38818359 -19.5 69.38818359 Z M-3.5 69.38818359 C-2.67460063 78.5704463 -2.67460063 78.5704463 -1.39257812 87.63208008 C-1.28674911 88.27099686 -1.1809201 88.90991364 -1.07188416 89.56819153 C-0.72892083 91.63256244 -0.38023275 93.69591629 -0.03125 95.75927734 C0.2118569 97.21365789 0.45464894 98.66809109 0.69714355 100.12257385 C1.20234309 103.14765079 1.7101948 106.17226533 2.22021484 109.1965332 C2.87308926 113.06823507 3.52092632 116.9407583 4.16701508 120.81359768 C4.66664683 123.8069594 5.16804086 126.80002361 5.6700592 129.79298592 C5.9096125 131.22144935 6.14882307 132.64997031 6.38768005 134.07855034 C6.72098579 136.06932852 7.05672768 138.05969837 7.39257812 140.05004883 C7.58275513 141.18047104 7.77293213 142.31089325 7.96887207 143.47557068 C8.39225603 145.79733448 8.92760354 148.09859774 9.5 150.38818359 C37.55 150.38818359 65.6 150.38818359 94.5 150.38818359 C96.294375 138.69380859 98.08875 126.99943359 99.9375 114.95068359 C100.78526001 109.43522827 100.78526001 109.43522827 101.65014648 103.80834961 C102.15998172 100.47946103 102.15998172 100.47946103 102.66932678 97.15049744 C102.89443718 95.68078879 103.12026908 94.21119052 103.34669495 92.74168396 C103.6917742 90.50114805 104.03447986 88.2602599 104.37670898 86.01928711 C104.56990219 84.76020035 104.7630954 83.50111359 104.96214294 82.20387268 C105.56268967 77.94344777 106.0248636 73.66441116 106.5 69.38818359 C70.2 69.38818359 33.9 69.38818359 -3.5 69.38818359 Z M-5.5 159.38818359 C-5.22072816 174.05434055 -5.22072816 174.05434055 1.5 186.38818359 C4.57860901 188.69714035 7.85757019 188.8591405 11.609375 188.78271484 C14.72902092 188.13171435 15.80307838 185.93356603 17.5 183.38818359 C20.35575502 181.60436403 22.55755806 181.13140028 25.89794922 181.09765625 C26.75919403 181.08489655 27.62043884 181.07213684 28.50778198 181.05899048 C29.4307608 181.05676483 30.35373962 181.05453918 31.3046875 181.05224609 C32.73979172 181.04226089 32.73979172 181.04226089 34.20388794 181.03207397 C36.22623779 181.02195718 38.24862096 181.01725665 40.27099609 181.01757812 C43.35700817 181.01320907 46.44158501 180.97689037 49.52734375 180.93896484 C51.49478679 180.93309559 53.4622366 180.92912692 55.4296875 180.92724609 C56.80808304 180.90568954 56.80808304 180.90568954 58.21432495 180.88369751 C63.80374427 180.92334154 67.10655869 181.58786975 71.5 185.38818359 C72.49 186.87318359 72.49 186.87318359 73.5 188.38818359 C78.2099933 188.93768281 80.53914339 188.85954721 84.8125 186.76318359 C91.20156121 181.11703648 91.66387612 173.49366688 92.5 165.38818359 C92.5 163.40818359 92.5 161.42818359 92.5 159.38818359 C60.16 159.38818359 27.82 159.38818359 -5.5 159.38818359 Z " fill="#EEEEEE" transform="translate(556.5,412.61181640625)"/>
<path d="M0 0 C3.21420722 12.01946028 6.20218679 24.03369889 8.25 36.3125 C8.40049805 37.20324219 8.55099609 38.09398437 8.70605469 39.01171875 C9.18284025 42.00314635 9.60144712 44.99709881 10 48 C10.08720306 48.64425934 10.17440613 49.28851868 10.26425171 49.95230103 C12.1336389 64.14981673 12.35949582 78.25748787 12.3125 92.5625 C12.30976578 94.28820221 12.30976578 94.28820221 12.30697632 96.04876709 C12.26288612 112.56377805 11.87713227 128.69999306 9 145 C8.82839355 146.0401123 8.65678711 147.08022461 8.47998047 148.15185547 C-1.5602093 208.45580132 -27.5395553 265.99255884 -68 312 C-68.63421875 312.73347656 -69.2684375 313.46695312 -69.921875 314.22265625 C-71.60152052 316.16041244 -73.29775319 318.08208391 -75 320 C-75.67289063 320.76570313 -76.34578125 321.53140625 -77.0390625 322.3203125 C-85.1618359 331.47637157 -93.71989972 340.02106331 -103 348 C-103.63043213 348.54245361 -104.26086426 349.08490723 -104.91040039 349.64379883 C-141.86687228 381.18617389 -185.22919085 404.72686246 -232 418 C-232.91185059 418.26119629 -233.82370117 418.52239258 -234.76318359 418.79150391 C-247.31433689 422.32117512 -259.94275679 424.81350746 -272.8125 426.8125 C-273.4903656 426.91782043 -274.1682312 427.02314087 -274.86663818 427.13165283 C-286.68885971 428.94683479 -298.32657204 430.14571094 -310.2890625 430.23828125 C-311.86499428 430.25263214 -311.86499428 430.25263214 -313.47276306 430.26727295 C-316.85687265 430.29176286 -320.24081301 430.30438789 -323.625 430.3125 C-324.77652557 430.31611542 -325.92805115 430.31973083 -327.11447144 430.32345581 C-370.86418051 430.3786065 -370.86418051 430.3786065 -387 425 C-386.34 421.7 -385.68 418.4 -385 415 C-378.34306975 415.46592262 -371.70597239 416.00665323 -365.07421875 416.75390625 C-277.36585159 426.51377458 -190.24333711 402.74358923 -120.98779297 347.59716797 C-120.33182129 347.07010254 -119.67584961 346.54303711 -119 346 C-118.39687988 345.51547363 -117.79375977 345.03094727 -117.17236328 344.53173828 C-108.33012725 337.33593689 -100.2038801 329.40411619 -92.125 321.375 C-91.63835876 320.89371643 -91.15171753 320.41243286 -90.65032959 319.91656494 C-83.97042285 313.29257118 -77.83545234 306.38103595 -72 299 C-70.82696126 297.55197125 -69.65379373 296.10404682 -68.48046875 294.65625 C-16.47933704 229.4245192 8.26873328 143.03819246 -0.2421875 60.16796875 C-2.3100231 42.39914478 -5.41832856 24.7880414 -10.08203125 7.515625 C-11 4 -11 4 -11 2 C-7.12315913 0.80712589 -4.08378077 0 0 0 Z " fill="#EEEEEE" transform="translate(924,506)"/>
<path d="M0 0 C3.86142204 0.78383567 6.01328244 2.42810432 9 5 C8.40165923 8.01687543 7.50367843 9.98708262 5.6640625 12.44140625 C5.18243652 13.09737793 4.70081055 13.75334961 4.20458984 14.42919922 C3.6833252 15.13318848 3.16206055 15.83717773 2.625 16.5625 C-3.95255766 25.67337277 -9.57623343 35.16879419 -15 45 C-15.42522949 45.76006348 -15.85045898 46.52012695 -16.28857422 47.30322266 C-33.69401337 78.5339741 -45.22257974 112.98736571 -51.25 148.1875 C-51.40114258 149.06341797 -51.55228516 149.93933594 -51.70800781 150.84179688 C-54.46054283 168.02805392 -55.38216431 185.24174954 -55.3125 202.625 C-55.31067719 203.57945007 -55.30885437 204.53390015 -55.30697632 205.51727295 C-55.25685881 221.18821763 -54.53197264 236.50679765 -52 252 C-51.82839355 253.06734375 -51.65678711 254.1346875 -51.47998047 255.234375 C-42.56866003 309.00491619 -20.5586923 360.02698914 13 403 C13.71929687 403.93328125 14.43859375 404.8665625 15.1796875 405.828125 C19.42506202 411.24992861 23.96708939 416.35125657 28.6328125 421.4140625 C30.61261868 423.57682106 32.53497963 425.76977277 34.4375 428 C41.3340606 435.92128541 48.93625129 443.27799531 57 450 C57.51030762 450.43473633 58.02061523 450.86947266 58.54638672 451.31738281 C87.00547587 475.51362956 119.50823926 493.90429592 154 508 C153.01 511.3 152.02 514.6 151 518 C144.75999887 517.47208112 139.52967002 514.74114445 133.9375 512.125 C132.34772339 511.38624634 132.34772339 511.38624634 130.72583008 510.63256836 C101.02193954 496.70132182 73.60568644 479.80662687 49 458 C48.06671875 457.17757813 47.1334375 456.35515625 46.171875 455.5078125 C34.18282864 444.73077356 22.02919675 433.51672546 12.15551758 420.73779297 C9.94289821 417.92747317 7.6373641 415.21795706 5.3125 412.5 C0.06989555 406.27191894 -4.52892047 399.67633012 -9 392.875 C-9.38774597 392.28939301 -9.77549194 391.70378601 -10.17498779 391.10043335 C-16.6339512 381.33445285 -22.62834771 371.40741728 -28 361 C-28.34144043 360.3512793 -28.68288086 359.70255859 -29.03466797 359.03417969 C-70.57589284 279.99293638 -78.07961669 186.56714995 -52.00390625 101.390625 C-40.43037247 64.7608245 -22.76858101 30.87862867 0 0 Z " fill="#EEEEEE" transform="translate(328,396)"/>
<path d="M0 0 C12.24294592 11.05591847 24.17172677 22.67591687 34.23046875 35.7734375 C35.12639403 36.86122571 36.02643485 37.94563217 36.9296875 39.02734375 C75.23046875 85.19300986 75.23046875 85.19300986 75.23046875 100.7734375 C73.94133388 101.44498683 72.64906671 102.11052609 71.35546875 102.7734375 C70.63617187 103.1446875 69.916875 103.5159375 69.17578125 103.8984375 C67.23046875 104.7734375 67.23046875 104.7734375 65.23046875 104.7734375 C64.67101562 103.65710938 64.1115625 102.54078125 63.53515625 101.390625 C54.4141173 83.47817647 43.95936456 66.35984054 31.23046875 50.7734375 C30.4725 49.8246875 29.71453125 48.8759375 28.93359375 47.8984375 C24.56763144 42.47862222 20.03253428 37.24774512 15.34375 32.10546875 C13.45670338 30.02309014 11.61988642 27.90840686 9.79296875 25.7734375 C3.17171908 18.18658892 -4.10011425 11.28368076 -11.76953125 4.7734375 C-12.67832031 3.97550781 -13.58710937 3.17757812 -14.5234375 2.35546875 C-36.29383288 -16.63200793 -60.94444244 -31.45072007 -86.76953125 -44.2265625 C-87.57084473 -44.6282666 -88.3721582 -45.0299707 -89.19775391 -45.44384766 C-121.46323819 -61.45041955 -157.21095783 -69.86532625 -192.76953125 -74.2265625 C-193.57922363 -74.3311377 -194.38891602 -74.43571289 -195.22314453 -74.54345703 C-205.34998999 -75.66866208 -215.59407573 -75.47056306 -225.76953125 -75.4765625 C-226.79630981 -75.47723724 -227.82308838 -75.47791199 -228.88098145 -75.47860718 C-245.04114954 -75.46175727 -260.79273585 -74.85359343 -276.76953125 -72.2265625 C-277.81802246 -72.06027344 -278.86651367 -71.89398438 -279.94677734 -71.72265625 C-338.94747893 -62.12181887 -392.36165754 -36.15555135 -438.24609375 1.72265625 C-441.67945284 4.51292486 -445.20643287 7.15153492 -448.76953125 9.7734375 C-450.74953125 7.4634375 -452.72953125 5.1534375 -454.76953125 2.7734375 C-437.19992274 -32.36577953 -369.74190824 -58.3818557 -335.26708984 -70.08154297 C-240.57938314 -101.08010115 -132.01824639 -90.77712311 0 0 Z " fill="#EEEEEE" transform="translate(825.76953125,348.2265625)"/>
<path d="M0 0 C4.09536251 2.8739386 4.09536251 2.8739386 5.08203125 5.71875 C5.15808594 6.3065625 5.23414063 6.894375 5.3125 7.5 C3.40942171 9.37016341 1.49227121 11.22024167 -0.4375 13.0625 C-0.97632813 13.59552734 -1.51515625 14.12855469 -2.0703125 14.67773438 C-3.671875 16.19140625 -3.671875 16.19140625 -6.6875 18.5 C-9.64098454 18.16032807 -10.70835036 17.4829905 -13.0625 15.5625 C-18.41381238 11.35789741 -24.09917728 10.79650113 -30.6875 11.5 C-36.90377251 12.82569252 -40.13773565 15.27975831 -43.6875 20.5 C-46.42826514 26.3386018 -46.84457739 32.60143813 -45 38.81640625 C-42.81266669 43.61942564 -39.98238576 46.48444191 -35.6875 49.5 C-32.48049911 50.5690003 -30.11757931 50.63332529 -26.75 50.625 C-25.70972656 50.62757813 -24.66945313 50.63015625 -23.59765625 50.6328125 C-20.47206439 50.58642971 -20.47206439 50.58642971 -16.6875 49.5 C-16.3575 42.9 -16.0275 36.3 -15.6875 29.5 C-9.4175 29.5 -3.1475 29.5 3.3125 29.5 C3.3125 40.06 3.3125 50.62 3.3125 61.5 C-11.02870735 68.67060367 -11.02870735 68.67060367 -16.6875 69.5 C-17.57824219 69.63277344 -18.46898437 69.76554688 -19.38671875 69.90234375 C-31.48222449 71.30953331 -44.16726885 69.76304438 -54.31640625 62.66015625 C-61.47812562 56.75787486 -67.09209118 48.83483883 -68.6875 39.5 C-69.54223495 26.14651786 -68.628732 15.14531763 -59.65625 4.5 C-44.02869518 -11.37561124 -17.99639592 -11.78637198 0 0 Z " fill="#EEEEEE" transform="translate(700.6875,673.5)"/>
<path d="M0 0 C6.3525 -0.061875 12.705 -0.12375 19.25 -0.1875 C21.2290332 -0.21481201 23.20806641 -0.24212402 25.24707031 -0.27026367 C38.11353552 -0.37474671 50.96350209 -0.19499195 61 9 C67.58314404 17.33549174 67.72379817 25.78640359 67 36 C65.18315312 42.71443414 60.67703435 46.78002029 55.4375 51.125 C44.81515979 56.91900375 33.74387077 56.26690615 22 56 C22 62.27 22 68.54 22 75 C14.74 75 7.48 75 0 75 C0 50.25 0 25.5 0 0 Z M22 18 C22 24.6 22 31.2 22 38 C24.536875 38.061875 27.07375 38.12375 29.6875 38.1875 C30.87218872 38.22846802 30.87218872 38.22846802 32.08081055 38.27026367 C36.61476924 38.32357739 39.43712454 37.83575802 43 35 C45.45928744 31.31106884 45.69305579 28.28358579 45 24 C42.8755173 20.55687286 41.85147359 19.28382453 38 18 C35.25917841 17.92943302 32.55153023 17.90663846 29.8125 17.9375 C27.234375 17.958125 24.65625 17.97875 22 18 Z " fill="#EEEEEE" transform="translate(549,667)"/>
<path d="M0 0 C-0.65503282 4.05819183 -1.94559121 7.53971282 -3.5625 11.3125 C-4.24505859 12.91544922 -4.24505859 12.91544922 -4.94140625 14.55078125 C-5.46541016 15.76314453 -5.46541016 15.76314453 -6 17 C-6.73605469 16.72285156 -7.47210937 16.44570313 -8.23046875 16.16015625 C-9.20628906 15.79792969 -10.18210937 15.43570313 -11.1875 15.0625 C-12.15042969 14.70285156 -13.11335937 14.34320312 -14.10546875 13.97265625 C-20.88480919 11.69457829 -28.22688465 10.79260309 -35.125 13 C-35.74375 13.33 -36.3625 13.66 -37 14 C-37 15.65 -37 17.3 -37 19 C-30.81003987 22.53265401 -24.12667456 23.88093608 -17.23046875 25.48632812 C-9.35960235 27.47833752 -4.20515891 30.79484109 1.5 36.5 C4.16566511 42.71988526 4.42359469 50.10480262 2.08203125 56.51171875 C-2.5397308 64.36422709 -9.38387257 68.58605029 -18 71 C-30.97155853 73.35226686 -48.51869024 72.29600472 -60 65 C-61.55081596 61.62815016 -61.05846626 60.16035923 -59.78515625 56.66796875 C-59.21667969 55.51941406 -58.64820313 54.37085938 -58.0625 53.1875 C-57.49660156 52.02605469 -56.93070312 50.86460937 -56.34765625 49.66796875 C-55.90292969 48.78753906 -55.45820313 47.90710938 -55 47 C-52.06297184 47.95885331 -49.156596 48.93835158 -46.28125 50.0703125 C-38.61099003 52.9789785 -31.18888927 54.17134885 -23 53 C-20.63728064 51.60120909 -20.63728064 51.60120909 -19 50 C-19.2314557 48.03695671 -19.2314557 48.03695671 -20 46 C-24.74233292 43.83237849 -29.60765149 42.50581386 -34.64794922 41.21313477 C-52.78302156 36.55463729 -52.78302156 36.55463729 -57.5 29.875 C-60.76195069 23.62292785 -61.23077477 16.47082644 -59.3515625 9.64453125 C-56.1579124 2.58847525 -50.8977986 -1.51689648 -43.8125 -4.375 C-30.13470289 -8.48694152 -12.1618764 -7.76706597 0 0 Z " fill="#EEEEEE" transform="translate(528,672)"/>
<path d="M0 0 C6.06899871 4.21310104 11.19013427 9.68641985 13.609375 16.7890625 C15.18709793 25.71897426 15.1204397 35.28904199 10 43 C5.3453206 49.62025645 -0.48188493 54.63352671 -8.4765625 56.61328125 C-17.57356237 58.00740352 -25.0542817 56.67068788 -33.125 52.3125 C-39.18757833 47.4360783 -44.59783768 41.87464373 -46 34 C-46.90246988 23.92617996 -46.65705922 14.92435631 -40.234375 6.75390625 C-29.58331236 -4.67292276 -13.90258507 -7.94768354 0 0 Z M-30.875 9.625 C-35.63692601 14.18429086 -38.12198811 19.87619134 -38.5625 26.4375 C-38.21838028 32.78706391 -35.57319838 38.52692607 -30.9921875 42.9296875 C-24.25357186 48.12662724 -18.40503477 48.73690902 -10 48 C-3.21545343 46.2335426 0.43955434 41.80914819 4 36 C6.50776376 31.55441878 6.7492312 26.98435917 6 22 C3.94505937 15.6535787 0.83643079 10.82063735 -4.76953125 7.12890625 C-13.79385767 2.56142756 -22.82163048 3.47765184 -30.875 9.625 Z " fill="#EEEEEE" transform="translate(616,496)"/>
<path d="M0 0 C3.5677811 2.35149209 5.84221079 4.99692157 7.75 8.8125 C8.27940021 14.12385952 8.41363629 18.48522741 6 23.3125 C1.96243575 27.7986825 -0.92422644 29.65999026 -7.0625 30.0625 C-11.12306094 29.99544487 -13.81188674 29.0785292 -17.25 26.8125 C-21.92177343 21.63566998 -22.5978341 18.41896502 -22.53515625 11.578125 C-22.0389048 6.7651657 -19.71185415 4.09715971 -16.1875 1 C-11.04600443 -2.15123922 -5.48396699 -2.00375717 0 0 Z " fill="#EEEEEE" transform="translate(607.25,508.1875)"/>
</svg>
