<?xml version="1.0" encoding="iso-8859-1"?>
<!-- Generator: Adobe Illustrator 24.0.3, SVG Export Plug-In . SVG Version: 6.00 Build 0)  -->
<svg version="1.1" xmlns="http://www.w3.org/2000/svg" xmlns:xlink="http://www.w3.org/1999/xlink" x="0px" y="0px"
	 viewBox="0 0 64 64" style="enable-background:new 0 0 64 64;" xml:space="preserve">
<g id="headphone">
	<path style="fill:#605491;" d="M63.127,45.115v-11.13c0-8.296-3.232-16.095-9.101-21.958C48.164,6.171,40.375,2.947,32.09,2.947
		c-0.01,0-0.021,0-0.031,0C14.962,2.966,1.053,16.888,1.053,33.985v11.011C0.426,45.371,0,46.051,0,46.833v4.201
		c0,0.784,0.426,1.463,1.053,1.839v5.521h2.191v-3.172c0.561,1.087,1.669,1.84,2.966,1.878c0.618,2.27,2.676,3.953,5.14,3.953
		c2.949,0,5.347-2.399,5.347-5.347V42.162c0-2.948-2.399-5.346-5.347-5.346c-2.463,0-4.521,1.682-5.139,3.952
		c-1.296,0.038-2.405,0.791-2.966,1.878v-8.66c0-15.889,12.927-28.83,28.817-28.846c0.01,0,0.019,0,0.029,0
		c7.699,0,14.939,2.997,20.386,8.438c5.455,5.449,8.459,12.697,8.459,20.408v9.07c-0.469-1.304-1.692-2.245-3.146-2.287
		c-0.618-2.269-2.677-3.952-5.139-3.952c-2.948,0-5.347,2.399-5.347,5.346v13.543c0,2.949,2.399,5.347,5.347,5.347
		c2.463,0,4.522-1.683,5.14-3.953c1.454-0.042,2.676-0.983,3.146-2.287v3.599h2.191v-5.658C63.654,52.362,64,51.74,64,51.034v-4.201
		C64,46.128,63.654,45.507,63.127,45.115z M8.193,42.162c0-1.74,1.416-3.155,3.156-3.155s3.156,1.416,3.156,3.155v13.543
		c0,1.741-1.416,3.156-3.156,3.156s-3.156-1.416-3.156-3.156V42.162z M5.04,44.217c0-0.591,0.414-1.066,0.962-1.207v11.846
		C5.454,54.716,5.04,54.241,5.04,53.65V44.217z M2.191,51.034l-0.042-4.158h0.7v4.139L2.191,51.034z M55.807,55.705
		c0,1.741-1.416,3.156-3.156,3.156c-1.74,0-3.156-1.416-3.156-3.156V42.162c0-1.74,1.416-3.155,3.156-3.155
		c1.74,0,3.156,1.416,3.156,3.155V55.705z M58.96,53.65c0,0.591-0.415,1.066-0.962,1.207V43.011
		c0.548,0.141,0.962,0.616,0.962,1.207V53.65z M61.151,50.992v-4.139l0.657-0.019l0.042,4.159H61.151z"/>
	<path style="fill:#D4C3F7;" d="M55.809,42.157v13.553c0,1.742-1.413,3.155-3.155,3.155c-1.742,0-3.155-1.413-3.155-3.155V42.157
		c0-1.731,1.413-3.155,3.155-3.155C54.396,39.001,55.809,40.426,55.809,42.157z M11.349,39.001c-1.742,0-3.155,1.424-3.155,3.155
		v13.553c0,1.742,1.413,3.155,3.155,3.155c1.742,0,3.155-1.413,3.155-3.155V42.157C14.505,40.426,13.091,39.001,11.349,39.001z"/>
</g>
<g id="Layer_1">
</g>
</svg>
