<?xml version="1.0" encoding="UTF-8"?>
<svg version="1.1" xmlns="http://www.w3.org/2000/svg" width="1200" height="1200">
<path d="M0 0 C396 0 792 0 1200 0 C1200 396 1200 792 1200 1200 C804 1200 408 1200 0 1200 C0 804 0 408 0 0 Z " fill="#393E46" transform="translate(0,0)"/>
<path d="M0 0 C3.26418626 0.01072783 6.5278224 0.00003622 9.79199219 -0.01269531 C22.09787375 -0.02148618 34.08277647 0.54501127 46.26855469 2.26074219 C47.40663574 2.4110791 48.5447168 2.56141602 49.71728516 2.71630859 C79.1380056 6.81933545 107.6224569 16.23098308 134.26855469 29.26074219 C135.12288086 29.67678711 135.97720703 30.09283203 136.85742188 30.52148438 C207.13445113 65.17902598 260.36270511 128.30395229 286.08105469 201.94824219 C286.84166866 204.38165572 287.57203708 206.80944578 288.26855469 209.26074219 C288.50380859 210.08010254 288.7390625 210.89946289 288.98144531 211.74365234 C293.04179573 226.08080107 296.16889133 240.50635104 298.26855469 255.26074219 C298.53889526 257.12907715 298.53889526 257.12907715 298.81469727 259.03515625 C300.20807208 269.27717547 300.55034113 279.37044335 300.47436523 289.69921875 C300.45606792 292.2588911 300.45385703 294.81819846 300.45410156 297.37792969 C300.42195753 313.85802501 299.54972472 329.8901672 296.70605469 346.13574219 C296.51206085 347.26027802 296.51206085 347.26027802 296.31414795 348.40753174 C293.75652522 363.06656711 290.07691851 377.16333526 285.26855469 391.26074219 C284.96224121 392.16856445 284.65592773 393.07638672 284.34033203 394.01171875 C273.82572411 424.62962081 258.04244788 452.7342178 238.26855469 478.26074219 C237.62490967 479.093396 237.62490967 479.093396 236.96826172 479.94287109 C223.75282401 496.89298596 208.23849088 513.08827423 191.26855469 526.26074219 C190.1798343 527.13781346 189.09267246 528.01682187 188.00683594 528.89746094 C179.75741342 535.54958026 171.2279434 541.60313376 162.26855469 547.26074219 C161.6473877 547.65583984 161.0262207 548.0509375 160.38623047 548.45800781 C139.43372922 561.6525229 116.76458192 571.59349061 93.26855469 579.26074219 C92.42824707 579.54498047 91.58793945 579.82921875 90.72216797 580.12207031 C68.03768441 587.72478437 41.79032515 592.35043914 17.86621094 592.46386719 C16.87970551 592.47097214 15.89320007 592.47807709 14.87680054 592.48539734 C-26.87156807 592.71758547 -26.87156807 592.71758547 -44.73144531 589.26074219 C-45.91303223 589.03499512 -47.09461914 588.80924805 -48.31201172 588.57666016 C-103.35068707 577.736662 -154.87014941 553.64304964 -195.85253906 514.95214844 C-198.07888973 512.87079754 -200.32634204 510.89295106 -202.66894531 508.94824219 C-213.10804742 499.87459226 -222.11621925 489.04219092 -230.40917969 478.015625 C-231.73843983 476.25145921 -233.08591817 474.50229645 -234.43457031 472.75292969 C-262.71640653 435.62068525 -280.78227737 391.05859424 -288.73144531 345.26074219 C-288.85745117 344.55965332 -288.98345703 343.85856445 -289.11328125 343.13623047 C-294.59149203 312.5021408 -294.61353957 276.80465813 -288.73144531 246.26074219 C-288.54340332 245.20790039 -288.35536133 244.15505859 -288.16162109 243.0703125 C-275.96245495 175.5818468 -239.27835461 109.74275877 -184.73144531 67.26074219 C-183.06464726 65.84423011 -181.39798623 64.42755679 -179.73144531 63.01074219 C-167.85424657 53.30537407 -154.79074263 44.86249947 -141.48046875 37.26074219 C-139.80913375 36.30516037 -138.14888203 35.33027124 -136.48925781 34.35449219 C-95.2418847 11.11116877 -47.09655653 -0.18369494 0 0 Z " fill="#393E46" transform="translate(594.7314453125,302.7392578125)"/>
<path d="M0 0 C0.93790878 -0.0071553 1.87581757 -0.01431061 2.84214783 -0.02168274 C3.87438477 -0.02437164 4.9066217 -0.02706055 5.97013855 -0.02983093 C7.05479904 -0.03640213 8.13945953 -0.04297333 9.25698853 -0.04974365 C12.85823123 -0.06950783 16.45943219 -0.08114567 20.06071472 -0.09111023 C21.2882868 -0.09518576 22.51585888 -0.09926128 23.78063011 -0.10346031 C29.60640639 -0.12217957 35.43216618 -0.1367429 41.25796682 -0.14507228 C47.98139553 -0.15484387 54.70449495 -0.18116083 61.42780763 -0.22157317 C67.25197531 -0.25537871 73.07603254 -0.26721784 78.90028954 -0.27127647 C81.37745587 -0.27615622 83.85461833 -0.28780938 86.33172035 -0.30631447 C89.79609707 -0.3305879 93.25960958 -0.32976213 96.7240448 -0.32279968 C97.75020905 -0.33560974 98.77637329 -0.3484198 99.83363342 -0.36161804 C104.23857923 -0.3292975 106.80107772 -0.30651061 110.61837769 2.03347778 C112.57756122 4.18716018 113.99791124 6.1983558 115.35368347 8.77217102 C115.77262878 9.54818665 116.1915741 10.32420227 116.62321472 11.12373352 C117.54118347 13.14717102 117.54118347 13.14717102 117.54118347 15.14717102 C118.17024597 15.10076477 118.79930847 15.05435852 119.44743347 15.00654602 C125.6855645 14.7434923 130.545985 15.16595514 135.54118347 19.14717102 C139.09816618 23.01576974 141.86650373 26.96203423 142.10368347 32.33467102 C141.51173532 36.34676402 140.86125979 38.8217283 138.54118347 42.14717102 C134.17254321 45.12578938 130.75887356 45.46023243 125.54118347 45.14717102 C125.58243347 46.24029602 125.62368347 47.33342102 125.66618347 48.45967102 C125.66690263 51.76670897 125.30273103 54.79240246 124.65837097 58.03388977 C123.36844236 64.87256797 122.45792712 71.75010749 121.54118347 78.64717102 C120.53244823 86.23632754 119.4584596 93.77772468 118.04118347 101.3014679 C117.03003947 107.05629918 116.31092846 112.85604268 115.54118347 118.64717102 C113.70153447 132.48765529 113.70153447 132.48765529 112.53727722 138.64717102 C111.05378349 146.5147534 110.13093089 154.46824707 109.1290741 162.40888977 C106.27783761 183.96923579 106.27783761 183.96923579 100.54118347 190.14717102 C92.05865363 196.42784562 82.59999091 195.8632476 72.56462097 195.77607727 C70.82687736 195.77690747 69.08913383 195.77937254 67.35139465 195.78338623 C63.725287 195.78623164 60.09980135 195.77166402 56.47380066 195.74409485 C51.84254109 195.70996281 47.21238877 195.7160591 42.58107567 195.73475742 C38.99835591 195.74535887 35.41589085 195.73636202 31.83319473 195.7213726 C30.12608727 195.71621682 28.41895292 195.71664073 26.71184921 195.72291756 C10.15780024 195.76095733 10.15780024 195.76095733 3.54118347 191.14717102 C-4.01544973 183.19282028 -4.54818935 172.99946184 -5.71101379 162.57344055 C-6.28087131 157.50496974 -7.01877489 152.49668683 -7.89631653 147.47138977 C-8.6183217 143.20453978 -9.25892741 138.92736773 -9.89631653 134.64717102 C-10.02385315 133.79147522 -10.15138977 132.93577942 -10.28279114 132.05415344 C-10.54468534 130.29483293 -10.80632015 128.53547379 -11.06770325 126.77607727 C-11.69407742 122.56584188 -12.32666568 118.35654222 -12.95881653 114.14717102 C-13.20884839 112.48050913 -13.45884834 110.81384246 -13.70881653 109.14717102 C-13.83256653 108.32217102 -13.95631653 107.49717102 -14.08381653 106.64717102 C-15.20881653 99.14717102 -15.20881653 99.14717102 -15.58406067 96.64497375 C-15.83302382 94.98559783 -16.08220846 93.32625511 -16.33161926 91.66694641 C-16.97434365 87.38898301 -17.61270004 83.1104341 -18.24397278 78.83076477 C-18.50285873 77.08203299 -18.76196972 75.33333451 -19.02131653 73.58467102 C-19.14546936 72.74516907 -19.26962219 71.90566711 -19.39753723 71.04072571 C-20.0566816 66.63822175 -20.79049182 62.26669856 -21.64631653 57.89717102 C-22.4737308 53.56863188 -22.6248988 49.54835116 -22.45881653 45.14717102 C-24.28412903 45.23998352 -24.28412903 45.23998352 -26.14631653 45.33467102 C-30.08428362 45.3137984 -32.38486935 44.78198289 -35.45881653 42.14717102 C-38.03491159 38.32744386 -39.07837879 34.87763191 -38.86506653 30.22920227 C-37.77415482 24.63827974 -34.35888895 20.45252228 -29.83381653 17.14717102 C-24.9286758 14.33752144 -19.94885174 14.69303208 -14.45881653 15.14717102 C-14.14944153 13.90967102 -14.14944153 13.90967102 -13.83381653 12.64717102 C-11.16100029 5.84363879 -7.70735648 0.04028583 0 0 Z " fill="#E8E9E9" transform="translate(548.4588165283203,413.8528289794922)"/>
<path d="M0 0 C3.26418626 0.01072783 6.5278224 0.00003622 9.79199219 -0.01269531 C22.09787375 -0.02148618 34.08277647 0.54501127 46.26855469 2.26074219 C47.40663574 2.4110791 48.5447168 2.56141602 49.71728516 2.71630859 C79.1380056 6.81933545 107.6224569 16.23098308 134.26855469 29.26074219 C135.12288086 29.67678711 135.97720703 30.09283203 136.85742188 30.52148438 C207.13445113 65.17902598 260.36270511 128.30395229 286.08105469 201.94824219 C286.84166866 204.38165572 287.57203708 206.80944578 288.26855469 209.26074219 C288.50380859 210.08010254 288.7390625 210.89946289 288.98144531 211.74365234 C293.04179573 226.08080107 296.16889133 240.50635104 298.26855469 255.26074219 C298.53889526 257.12907715 298.53889526 257.12907715 298.81469727 259.03515625 C300.20807208 269.27717547 300.55034113 279.37044335 300.47436523 289.69921875 C300.45606792 292.2588911 300.45385703 294.81819846 300.45410156 297.37792969 C300.42195753 313.85802501 299.54972472 329.8901672 296.70605469 346.13574219 C296.51206085 347.26027802 296.51206085 347.26027802 296.31414795 348.40753174 C293.75652522 363.06656711 290.07691851 377.16333526 285.26855469 391.26074219 C284.96224121 392.16856445 284.65592773 393.07638672 284.34033203 394.01171875 C273.82572411 424.62962081 258.04244788 452.7342178 238.26855469 478.26074219 C237.62490967 479.093396 237.62490967 479.093396 236.96826172 479.94287109 C223.75282401 496.89298596 208.23849088 513.08827423 191.26855469 526.26074219 C190.1798343 527.13781346 189.09267246 528.01682187 188.00683594 528.89746094 C179.75741342 535.54958026 171.2279434 541.60313376 162.26855469 547.26074219 C161.6473877 547.65583984 161.0262207 548.0509375 160.38623047 548.45800781 C139.43372922 561.6525229 116.76458192 571.59349061 93.26855469 579.26074219 C92.42824707 579.54498047 91.58793945 579.82921875 90.72216797 580.12207031 C68.03768441 587.72478437 41.79032515 592.35043914 17.86621094 592.46386719 C16.87970551 592.47097214 15.89320007 592.47807709 14.87680054 592.48539734 C-26.87156807 592.71758547 -26.87156807 592.71758547 -44.73144531 589.26074219 C-45.91303223 589.03499512 -47.09461914 588.80924805 -48.31201172 588.57666016 C-103.35068707 577.736662 -154.87014941 553.64304964 -195.85253906 514.95214844 C-198.07888973 512.87079754 -200.32634204 510.89295106 -202.66894531 508.94824219 C-213.10804742 499.87459226 -222.11621925 489.04219092 -230.40917969 478.015625 C-231.73843983 476.25145921 -233.08591817 474.50229645 -234.43457031 472.75292969 C-262.71640653 435.62068525 -280.78227737 391.05859424 -288.73144531 345.26074219 C-288.85745117 344.55965332 -288.98345703 343.85856445 -289.11328125 343.13623047 C-294.59149203 312.5021408 -294.61353957 276.80465813 -288.73144531 246.26074219 C-288.54340332 245.20790039 -288.35536133 244.15505859 -288.16162109 243.0703125 C-275.96245495 175.5818468 -239.27835461 109.74275877 -184.73144531 67.26074219 C-183.06464726 65.84423011 -181.39798623 64.42755679 -179.73144531 63.01074219 C-167.85424657 53.30537407 -154.79074263 44.86249947 -141.48046875 37.26074219 C-139.80913375 36.30516037 -138.14888203 35.33027124 -136.48925781 34.35449219 C-95.2418847 11.11116877 -47.09655653 -0.18369494 0 0 Z M-175.73144531 72.26074219 C-177.26671875 73.48857422 -177.26671875 73.48857422 -178.83300781 74.74121094 C-195.35067393 88.25634686 -211.25461583 103.92716029 -223.73144531 121.26074219 C-224.62948985 122.44531202 -225.53064537 123.62752847 -226.43457031 124.80761719 C-269.80321491 181.87362022 -290.3444437 256.75412473 -281.47753906 327.99511719 C-281.23433542 329.75109524 -280.9851554 331.50625134 -280.73144531 333.26074219 C-280.58078613 334.33388672 -280.43012695 335.40703125 -280.27490234 336.51269531 C-275.51624973 369.40728152 -265.50316214 400.95573275 -249.73144531 430.26074219 C-249.35552246 430.97246582 -248.97959961 431.68418945 -248.59228516 432.41748047 C-238.53569936 451.41508319 -226.37885992 469.18900325 -211.79394531 485.01464844 C-209.99228775 486.97668083 -208.26356688 488.97728968 -206.54394531 491.01074219 C-197.80130017 501.01103001 -188.20596314 510.10501075 -177.73144531 518.26074219 C-176.41522021 519.32706837 -175.10020902 520.39489395 -173.78613281 521.46386719 C-128.31435411 558.10145079 -68.50430457 582.02803876 -9.73925781 582.49902344 C-8.7229982 582.50877197 -7.70673859 582.51852051 -6.65968323 582.52856445 C15.31766125 582.69608667 36.64703086 582.60769494 58.26855469 578.26074219 C59.15397949 578.09477539 60.0394043 577.92880859 60.95166016 577.7578125 C111.4870474 568.11093538 159.05842045 543.33003856 196.72949219 508.57714844 C198.8072622 506.68158287 200.92001479 504.87104346 203.08105469 503.07324219 C213.55095906 493.93353059 222.61215665 483.0969344 230.94628906 472.015625 C232.2755492 470.25145921 233.62302755 468.50229645 234.97167969 466.75292969 C242.58213577 456.75808179 249.01904352 446.14654519 255.26855469 435.26074219 C255.64608887 434.61169922 256.02362305 433.96265625 256.41259766 433.29394531 C271.05693265 407.95353661 280.62836805 378.89630448 286.26855469 350.26074219 C286.46465332 349.31134766 286.66075195 348.36195313 286.86279297 347.38378906 C293.92649778 311.73604899 293.31744297 271.6688991 285.26855469 236.26074219 C285.00091309 235.06400879 284.73327148 233.86727539 284.45751953 232.63427734 C281.13112809 218.12637796 276.94915428 204.02171745 271.26855469 190.26074219 C270.97400391 189.54225098 270.67945313 188.82375977 270.37597656 188.08349609 C260.08207548 163.28808965 246.83310562 140.37599392 230.26855469 119.26074219 C229.56472656 118.36355469 228.86089844 117.46636719 228.13574219 116.54199219 C215.4791017 100.75521481 201.26970852 85.67189356 185.26855469 73.26074219 C184.0027153 72.25450141 182.73710604 71.2479711 181.47167969 70.24121094 C171.19312417 62.14218109 160.5022078 54.96533858 149.26855469 48.26074219 C148.53556152 47.82133301 147.80256836 47.38192383 147.04736328 46.92919922 C127.30954646 35.21776938 106.17836608 26.94174481 84.26855469 20.26074219 C82.61750732 19.75486572 82.61750732 19.75486572 80.93310547 19.23876953 C72.78039963 16.81806225 64.65431869 15.03308353 56.26855469 13.63574219 C55.00164795 13.42409424 53.73474121 13.21244629 52.42944336 12.99438477 C-28.72870941 -0.18619512 -111.52957242 20.26854537 -175.73144531 72.26074219 Z " fill="#E9E9E9" transform="translate(594.7314453125,302.7392578125)"/>
<path d="M0 0 C36.63 0 73.26 0 111 0 C109.87387471 14.63962877 109.87387471 14.63962877 109.09765625 20.2265625 C108.92943359 21.4434375 108.76121094 22.6603125 108.58789062 23.9140625 C108.41451172 25.13867188 108.24113281 26.36328125 108.0625 27.625 C107.80823242 29.47351563 107.80823242 29.47351563 107.54882812 31.359375 C106.79698328 36.74521415 106.00840032 42.10894947 105 47.453125 C103.58950897 54.96974859 102.66450132 62.55739847 101.67456055 70.13867188 C101.42075279 72.07469382 101.1616414 74.01001819 100.90234375 75.9453125 C100.75273193 77.08500488 100.60312012 78.22469727 100.44897461 79.39892578 C100 82 100 82 99 83 C96.35799939 83.10043271 93.7421141 83.1361685 91.09960938 83.12939453 C89.85821953 83.13202301 89.85821953 83.13202301 88.5917511 83.13470459 C85.84239638 83.13912393 83.09310543 83.13618483 80.34375 83.1328125 C78.44185371 83.13348552 76.53995751 83.13445552 74.63806152 83.13571167 C70.64655745 83.13718875 66.65507571 83.13503375 62.66357422 83.13037109 C57.53509493 83.1246738 52.40666798 83.12795275 47.27819061 83.13394356 C43.34925946 83.13754889 39.42034082 83.13641072 35.4914093 83.13381577 C33.59987888 83.13314642 31.70834735 83.13397519 29.81681824 83.13629532 C27.17797823 83.13882138 24.53922419 83.13498191 21.90039062 83.12939453 C20.71592094 83.13243088 20.71592094 83.13243088 19.50752258 83.13552856 C14.11426251 83.11426251 14.11426251 83.11426251 13 82 C12.69381242 80.56799853 12.44286146 79.12411404 12.21557617 77.67749023 C12.06839645 76.75399277 11.92121674 75.8304953 11.76957703 74.87901306 C11.6122963 73.86577469 11.45501556 72.85253632 11.29296875 71.80859375 C11.12630203 70.75712662 10.95963531 69.70565948 10.78791809 68.62232971 C10.25060183 65.22798042 9.71883417 61.83279037 9.1875 58.4375 C8.49508208 54.04011259 7.80035733 49.64309131 7.10546875 45.24609375 C6.93336884 44.15356293 6.76126892 43.0610321 6.58395386 41.93539429 C5.21042704 33.24481877 3.77501444 24.56539115 2.29716492 15.89195251 C2.14149551 14.97120438 1.98582611 14.05045624 1.82543945 13.10180664 C1.68975052 12.3065004 1.55406158 11.51119415 1.41426086 10.69178772 C0.86743933 7.13864616 0.44590148 3.56721188 0 0 Z " fill="#3C4148" transform="translate(552,481)"/>
<path d="M0 0 C7.42534023 31.23975017 12.22316058 61.50940136 12.25 93.6875 C12.25100708 94.53528015 12.25201416 95.3830603 12.25305176 96.25653076 C12.23503005 118.87324002 9.79435979 140.88928436 5 163 C4.83306641 163.81355957 4.66613281 164.62711914 4.49414062 165.46533203 C-0.54129059 189.9238298 -9.44483183 213.42180944 -20 236 C-20.5868457 237.26432861 -20.5868457 237.26432861 -21.18554688 238.55419922 C-33.34822332 264.50360333 -49.08511907 288.49194991 -68 310 C-68.63421875 310.73347656 -69.2684375 311.46695312 -69.921875 312.22265625 C-71.60151532 314.16040644 -73.2980018 316.08187504 -75 318 C-75.66128906 318.75410156 -76.32257813 319.50820313 -77.00390625 320.28515625 C-81.2272845 325.05251166 -85.57165774 329.67321985 -90.0625 334.1875 C-90.53260498 334.66219727 -91.00270996 335.13689453 -91.48706055 335.62597656 C-95.49072286 339.61246756 -99.71514889 343.31978164 -104 347 C-104.63510498 347.54712646 -105.27020996 348.09425293 -105.92456055 348.65795898 C-116.76185912 357.92507684 -128.06281362 366.20860103 -140 374 C-140.68416992 374.44827148 -141.36833984 374.89654297 -142.07324219 375.35839844 C-171.45403744 394.48704828 -203.93104945 409.42635681 -238 418 C-239.10263184 418.28520508 -239.10263184 418.28520508 -240.22753906 418.57617188 C-268.69020025 425.90003099 -296.91084439 429.14545974 -326.25 429.25 C-327.08700439 429.25535767 -327.92400879 429.26071533 -328.78637695 429.26623535 C-344.94026334 429.34466766 -360.72044995 427.76944668 -376.6875 425.375 C-377.60337891 425.2409375 -378.51925781 425.106875 -379.46289062 424.96875 C-381.6424287 424.64923656 -383.82130002 424.3251791 -386 424 C-385.67 420.7 -385.34 417.4 -385 414 C-379.85340556 414.38407421 -374.76713239 414.84790935 -369.67700195 415.70581055 C-355.21976355 418.10743237 -341.01088202 418.55637645 -326.375 418.5 C-325.17333191 418.49856995 -323.97166382 418.49713989 -322.73358154 418.4956665 C-302.4115857 418.43602971 -282.91402469 417.02306277 -263 413 C-261.37167236 412.68699951 -261.37167236 412.68699951 -259.71044922 412.36767578 C-231.5899197 406.83685031 -203.54848045 396.88914344 -178 384 C-176.84129395 383.42668945 -176.84129395 383.42668945 -175.65917969 382.84179688 C-154.57355205 372.36825253 -135.11196119 358.99592486 -117 344 C-116.02675781 343.21238281 -115.05351563 342.42476562 -114.05078125 341.61328125 C-106.18837223 335.14381871 -98.90123236 328.11454209 -91.6875 320.9375 C-90.7687207 320.02790527 -89.84994141 319.11831055 -88.90332031 318.18115234 C-82.84377927 312.09425692 -77.33536636 305.72615549 -72 299 C-71.07080129 297.86571806 -70.14012411 296.73264317 -69.20703125 295.6015625 C-40.53290009 259.95769963 -21.25098084 218.89012683 -9 175 C-8.76829102 174.18128418 -8.53658203 173.36256836 -8.29785156 172.51904297 C-6.59955552 166.3954513 -5.23177347 160.23322382 -4 154 C-3.77006348 152.85869629 -3.54012695 151.71739258 -3.30322266 150.54150391 C3.89475654 113.20655564 4.43823224 72.32620538 -3 35 C-3.37729248 33.10169434 -3.37729248 33.10169434 -3.76220703 31.16503906 C-5.20354246 24.01116897 -6.74912479 16.88401881 -8.39916992 9.77539062 C-9.02984789 6.86212483 -9.53214862 3.94341786 -10 1 C-6.61376074 -0.04191977 -3.52573365 -0.03863818 0 0 Z " fill="#E8E8E8" transform="translate(924,507)"/>
<path d="M0 0 C3.15610299 0.02370437 6.31135872 0.02050816 9.4675293 0.01391602 C28.22822285 0.03837028 46.88393511 1.14895544 65.34057617 4.64868164 C66.52474121 4.86886963 67.70890625 5.08905762 68.92895508 5.31591797 C127.090278 16.39859561 182.78808888 42.96185994 227.09057617 82.33618164 C227.82381104 82.98329102 228.5570459 83.63040039 229.3125 84.29711914 C235.62226947 89.91185466 241.67919952 95.74169432 247.65307617 101.71118164 C248.53415039 102.58000977 249.41522461 103.44883789 250.32299805 104.34399414 C256.35183071 110.35947884 261.79270141 116.6735557 267.09057617 123.33618164 C268.11504249 124.57944371 269.14200586 125.82065688 270.17260742 127.05883789 C307.09057617 171.96139058 307.09057617 171.96139058 307.09057617 187.33618164 C301.46557617 190.33618164 301.46557617 190.33618164 298.09057617 190.33618164 C297.2165918 188.60948242 297.2165918 188.60948242 296.32495117 186.84790039 C282.82957399 160.50816526 266.01665277 137.19281237 246.09057617 115.33618164 C244.54859588 113.60729464 243.00692716 111.8781297 241.46557617 110.14868164 C235.37957232 103.39817476 228.99315242 97.24274856 222.09057617 91.33618164 C221.17791992 90.53438477 220.26526367 89.73258789 219.32495117 88.90649414 C185.84785186 59.72727629 146.17893276 38.96465003 104.09057617 25.33618164 C103.21771973 25.05258789 102.34486328 24.76899414 101.44555664 24.47680664 C70.23593192 14.44999787 37.33816746 10.09982894 4.59057617 10.14868164 C3.89703033 10.14895355 3.2034845 10.14922546 2.48892212 10.14950562 C-9.73040037 10.17137426 -21.78309422 10.78656954 -33.90942383 12.33618164 C-35.0313916 12.4729834 -35.0313916 12.4729834 -36.17602539 12.61254883 C-71.58139151 17.0714659 -105.98005648 27.49978317 -137.90942383 43.33618164 C-138.85833496 43.79718262 -139.80724609 44.25818359 -140.78491211 44.7331543 C-164.63433563 56.36455253 -186.52845908 71.23969975 -206.51171875 88.67138672 C-209.489747 91.24737876 -212.4686189 93.4197039 -215.90942383 95.33618164 C-218.47192383 93.08618164 -218.47192383 93.08618164 -220.90942383 90.33618164 C-220.79393231 87.52396324 -219.96663754 86.40133825 -218.10864258 84.28540039 C-199.54670883 67.5709997 -178.63898559 53.57015031 -156.90942383 41.33618164 C-156.18835449 40.92899902 -155.46728516 40.52181641 -154.72436523 40.10229492 C-107.96683135 13.95997003 -53.58372761 -0.4278059 0 0 Z " fill="#E9E9E9" transform="translate(592.909423828125,261.663818359375)"/>
<path d="M0 0 C2.31 1.65 4.62 3.3 7 5 C6.08104716 8.67581134 5.31229854 10.30612317 3.2265625 13.31640625 C2.65478271 14.15252441 2.08300293 14.98864258 1.49389648 15.85009766 C0.87716064 16.74519043 0.2604248 17.6402832 -0.375 18.5625 C-21.99921929 50.5798614 -38.48850006 85.53598233 -47.34863281 123.24121094 C-47.99824292 125.99255809 -48.68039431 128.73428839 -49.3671875 131.4765625 C-55.13704955 155.02508807 -57.2310223 179.04570714 -57.25 203.25 C-57.25067474 204.0351297 -57.25134949 204.8202594 -57.25204468 205.62918091 C-57.23269976 219.9304968 -56.1952412 233.85619259 -54 248 C-53.82307617 249.18174805 -53.64615234 250.36349609 -53.46386719 251.58105469 C-51.05859224 267.42097415 -47.97225353 282.76545352 -43 298 C-42.68047363 298.99531738 -42.36094727 299.99063477 -42.03173828 301.01611328 C-29.43671854 339.92604837 -11.00393325 376.26565074 15 408 C15.41491699 408.50966309 15.82983398 409.01932617 16.25732422 409.54443359 C40.1736387 438.80938726 68.42128775 463.74362416 101 483 C101.5971582 483.35835937 102.19431641 483.71671875 102.80957031 484.0859375 C111.9419954 489.54050856 121.42581657 494.25238632 131 498.875 C132.15798096 499.43485596 133.31596191 499.99471191 134.5090332 500.5715332 C140.26459113 503.32135986 145.97912544 505.8897425 152 508 C151.5020163 511.73487777 151.12508244 513.81237635 149 517 C144.79743474 516.43643909 141.34945863 515.46546877 137.5 513.69921875 C136.45884033 513.22274902 135.41768066 512.7462793 134.3449707 512.25537109 C133.24113037 511.73797363 132.13729004 511.22057617 131 510.6875 C129.85168701 510.15205566 128.70337402 509.61661133 127.52026367 509.06494141 C110.92966344 501.23592652 94.99598475 492.57918541 80 482 C78.78659388 481.15735686 77.57305077 480.31491096 76.359375 479.47265625 C68.96071592 474.29996618 61.90375183 468.82232497 55 463 C54.02675781 462.21238281 53.05351562 461.42476562 52.05078125 460.61328125 C43.81016407 453.85940611 36.23239037 446.44748903 28.6875 438.9375 C27.91981796 438.17758255 27.91981796 438.17758255 27.1366272 437.40231323 C20.28701563 430.60735903 13.97958474 423.58838982 8 416 C7.39534912 415.24936279 6.79069824 414.49872559 6.16772461 413.7253418 C-2.26991046 403.24497382 -10.03294392 392.51240818 -17 381 C-17.71470459 379.81978271 -17.71470459 379.81978271 -18.44384766 378.61572266 C-36.46895911 348.55803268 -49.24993781 316.9035743 -58 283 C-58.25201172 282.06349609 -58.50402344 281.12699219 -58.76367188 280.16210938 C-60.73756934 272.64514434 -62.10631676 265.07211618 -63.30761719 257.39941406 C-63.62587981 255.36938815 -63.9529501 253.34092438 -64.28125 251.3125 C-66.05664238 240.18398493 -67.15710612 229.35454046 -67.23828125 218.08203125 C-67.24812042 216.9590715 -67.25795959 215.83611176 -67.26809692 214.67912292 C-67.43395263 190.83587531 -67.5613282 167.48556703 -63 144 C-62.76925781 142.76668945 -62.53851563 141.53337891 -62.30078125 140.26269531 C-52.55972829 89.48294699 -31.4899523 41.08208206 0 0 Z " fill="#E9E9E9" transform="translate(329,396)"/>
<path d="M0 0 C7.0125 -0.103125 14.025 -0.20625 21.25 -0.3125 C23.43786133 -0.35802002 25.62572266 -0.40354004 27.87988281 -0.45043945 C40.9768529 -0.61055468 50.65185166 0.18246013 61 9 C66.63342704 16.15559041 67.75278754 23.04867177 67 32 C66.34428068 34.88103447 65.34344915 37.37341982 64 40 C63.69449219 40.60714844 63.38898437 41.21429687 63.07421875 41.83984375 C59.41672311 47.9179365 52.84852479 51.49452495 46.17504883 53.56665039 C43.59623053 54.08044571 41.2078079 54.1122656 38.578125 54.09765625 C37.55332031 54.09443359 36.52851562 54.09121094 35.47265625 54.08789062 C34.40917969 54.07951172 33.34570312 54.07113281 32.25 54.0625 C31.17105469 54.05798828 30.09210937 54.05347656 28.98046875 54.04882812 C26.32028875 54.03705742 23.66013731 54.01912239 21 54 C21 60.6 21 67.2 21 74 C14.07 74 7.14 74 0 74 C0 49.58 0 25.16 0 0 Z " fill="#EBEBEB" transform="translate(549,668)"/>
<path d="M0 0 C2.11040173 1.62745714 4.11414208 3.28452606 6.0546875 5.109375 C5.56178184 9.31357037 3.29178005 11.15804222 0.2421875 13.921875 C-0.63050781 14.73269531 -1.50320313 15.54351563 -2.40234375 16.37890625 C-4.9453125 18.109375 -4.9453125 18.109375 -7.078125 17.99609375 C-9.89351831 16.65907642 -12.37296513 14.86076045 -14.9453125 13.109375 C-20.82132559 11.15070397 -28.34082703 11.00030255 -34.28125 12.828125 C-38.86235036 15.30872083 -41.65982526 18.85977232 -44.1953125 23.296875 C-46.0640124 30.30449963 -45.45502983 36.65244035 -42.21484375 43.1328125 C-39.32322252 47.63484432 -35.16321828 50.80489856 -29.9453125 52.109375 C-24.38839313 52.46427069 -19.4662792 52.02953612 -13.9453125 51.109375 C-13.9453125 44.179375 -13.9453125 37.249375 -13.9453125 30.109375 C-7.6753125 30.109375 -1.4053125 30.109375 5.0546875 30.109375 C5.0546875 40.339375 5.0546875 50.569375 5.0546875 61.109375 C-8.8912847 68.0823611 -22.36916281 72.93422081 -38.0234375 69.41796875 C-48.81905662 65.81440315 -58.14267123 59.3680877 -63.48828125 49.1640625 C-68.33894842 37.886601 -68.25624495 27.66930161 -64.26171875 16.1171875 C-60.4853167 7.48861307 -54.15066616 1.59610627 -45.9453125 -2.890625 C-42.65827578 -4.17337104 -39.38191344 -5.10683882 -35.9453125 -5.890625 C-35.32011719 -6.07109375 -34.69492187 -6.2515625 -34.05078125 -6.4375 C-22.44586954 -8.93503202 -9.92811771 -6.3729562 0 0 Z " fill="#EAEAEB" transform="translate(698.9453125,672.890625)"/>
<path d="M0 0 C-0.60636233 5.76044212 -2.75658279 10.72014369 -5 16 C-6.62566606 15.52309796 -8.25051311 15.04340334 -9.875 14.5625 C-10.77992188 14.29566406 -11.68484375 14.02882813 -12.6171875 13.75390625 C-15 13 -15 13 -17 12 C-19.82274537 11.9015658 -22.61528097 11.86101708 -25.4375 11.875 C-26.21416016 11.87113281 -26.99082031 11.86726562 -27.79101562 11.86328125 C-31.11081172 11.86900011 -33.82993506 11.94331169 -37 13 C-37.33397787 15.87413125 -37.33397787 15.87413125 -37 19 C-33.59854784 22.63418309 -29.1727851 22.95511268 -24.5 23.8125 C-13.28555098 26.10841587 -3.85026714 29.37259753 3 39 C5.16556992 43.33113984 4.55118479 48.83036816 3.38671875 53.4140625 C0.58453523 60.5985154 -4.63883421 65.65299893 -11.625 68.875 C-23.30893925 72.76964642 -37.25449675 72.41477365 -48.9375 68.75 C-49.59282715 68.54552246 -50.2481543 68.34104492 -50.92333984 68.13037109 C-55.16539201 66.65230024 -56.65073228 65.34926772 -60 62 C-57.03 55.07 -57.03 55.07 -54 48 C-50 49 -50 49 -46.6875 50.4375 C-38.98749124 53.75142782 -30.17148216 55.98082823 -21.89453125 53.32421875 C-20.1021737 52.46812415 -20.1021737 52.46812415 -18 51 C-18 49.35 -18 47.7 -18 46 C-23.87643341 43.34430413 -29.71673286 41.54087478 -36 40.125 C-43.29581408 38.41200294 -50.60582619 36.27684099 -55.45703125 30.1640625 C-58.53439634 25.00974783 -59.86260463 19.94795983 -59 14 C-56.58232063 6.66787891 -52.80956945 1.67230353 -46 -2 C-43.04758567 -3.23340994 -40.09377566 -4.19166388 -37 -5 C-36.40316406 -5.18175781 -35.80632812 -5.36351562 -35.19140625 -5.55078125 C-22.98653989 -8.05267008 -10.99740054 -5.49870027 0 0 Z " fill="#EAEAEA" transform="translate(527,672)"/>
<path d="M0 0 C6.60525082 5.1832871 10.37355325 11.12065974 13 19 C14.09775161 28.65743509 12.58357905 35.99076776 7 44 C1.46891016 50.21245598 -4.3878408 54.43582151 -12.83203125 55.46875 C-23.3841305 55.55159278 -30.75093729 54.02360796 -38.8125 46.875 C-45.35704955 39.67909718 -47.84757415 31.71414882 -47.4140625 22.07421875 C-46.30017261 13.80411173 -42.04900411 7.60907654 -36 2 C-25.62077279 -5.81837115 -11.30536073 -6.98734101 0 0 Z " fill="#3F444B" transform="translate(617,497)"/>
<path d="M0 0 C33 0 66 0 100 0 C98.84940653 13.80712166 98.84940653 13.80712166 97.6875 19 C97.46449219 20.051875 97.24148438 21.10375 97.01171875 22.1875 C95.86137125 25.38537721 94.62418518 26.87308068 92 29 C87.67691506 30.44102831 83.51249376 30.68910003 79 30 C76.5 27.5625 76.5 27.5625 75 25 C72.66081408 23.83040704 71.2369908 23.8551762 68.62963867 23.82299805 C67.7249736 23.81016281 66.82030853 23.79732758 65.88822937 23.78410339 C64.41795036 23.77302299 64.41795036 23.77302299 62.91796875 23.76171875 C61.91163895 23.753647 60.90530914 23.74557526 59.8684845 23.73725891 C57.73582689 23.72341283 55.60314706 23.71269303 53.47045898 23.70483398 C50.2109978 23.68762407 46.95255153 23.64374247 43.69335938 23.59960938 C41.6224033 23.58948233 39.55143859 23.58096626 37.48046875 23.57421875 C36.50635544 23.55671066 35.53224213 23.53920258 34.52861023 23.52116394 C30.16013944 23.53514486 27.69574712 23.57218171 23.9074707 25.90161133 C21.9606878 27.8530356 21.9606878 27.8530356 21 30 C15.67449228 30.42641966 11.38287743 30.66674448 6.5 28.3125 C0.07555341 21.75845362 0.66812616 8.01751397 0 0 Z " fill="#3C4149" transform="translate(550,571)"/>
<path d="M0 0 C1.86318375 -0.01279495 1.86318375 -0.01279495 3.76400757 -0.02584839 C5.13784803 -0.02514939 6.51168839 -0.02422634 7.88552856 -0.02310181 C9.33449653 -0.02908714 10.7834613 -0.0358927 12.23242188 -0.04345703 C16.16636377 -0.0611238 20.10021865 -0.06581269 24.03419638 -0.0670886 C26.49264652 -0.06851038 28.95107455 -0.07278046 31.4095192 -0.07808304 C39.98812515 -0.09658552 48.56666895 -0.10475337 57.14529419 -0.10317993 C65.13879096 -0.10197845 73.13201775 -0.12308142 81.1254462 -0.15466726 C87.99096949 -0.18082837 94.8564046 -0.1915473 101.72197735 -0.19026911 C105.8212776 -0.18975943 109.92033792 -0.19544593 114.01958847 -0.21662521 C117.87581577 -0.236005 121.7315742 -0.23613421 125.58781815 -0.22159195 C127.00113358 -0.2195024 128.41447834 -0.22421358 129.82774353 -0.23631287 C143.15896659 -0.34303037 143.15896659 -0.34303037 147.94070435 4.26742554 C150.37839652 7.9239638 150.18014873 9.95742655 149.94070435 14.26742554 C148.10215033 16.10597955 145.14000679 15.39363043 142.67703247 15.39440918 C142.01534813 15.39596917 141.35366379 15.39752916 140.67192841 15.39913642 C138.43858155 15.40314825 136.2053018 15.39995609 133.97195435 15.39682007 C132.37739014 15.39817403 130.78282624 15.39995393 129.18826294 15.40213013 C124.84541056 15.40670508 120.50258182 15.40491465 116.159729 15.40175104 C111.62513157 15.39922776 107.09053623 15.40156489 102.55593872 15.40313721 C94.93939855 15.404959 87.32286805 15.40255235 79.70632935 15.39779663 C70.88754246 15.39235399 62.06877869 15.39411664 53.24999237 15.39962304 C45.69247997 15.4041539 38.13497456 15.40480485 30.57746124 15.40218437 C26.05750652 15.40062144 21.53756268 15.40042824 17.01760864 15.40372086 C12.76924553 15.40659918 8.52091235 15.40462459 4.27255249 15.3988266 C2.7087916 15.39749879 1.14502822 15.39789346 -0.41873169 15.40008926 C-2.54439698 15.40279998 -4.66996479 15.39942065 -6.79562378 15.39440918 C-7.98804688 15.39403215 -9.18046997 15.39365513 -10.4090271 15.39326668 C-13.05929565 15.26742554 -13.05929565 15.26742554 -14.05929565 14.26742554 C-14.44988999 10.20524445 -14.49265729 7.96389959 -12.30929565 4.45492554 C-8.36386882 0.61909389 -5.46130865 0.01694992 0 0 Z " fill="#3B4048" transform="translate(532.0592956542969,435.7325744628906)"/>
<path d="M0 0 C43.56 0 87.12 0 132 0 C131.67 4.95 131.34 9.9 131 15 C88.1 15 45.2 15 1 15 C0.67 10.05 0.34 5.1 0 0 Z " fill="#3D4149" transform="translate(534,459)"/>
<path d="M0 0 C6.60525082 5.1832871 10.37355325 11.12065974 13 19 C14.09775161 28.65743509 12.58357905 35.99076776 7 44 C1.46891016 50.21245598 -4.3878408 54.43582151 -12.83203125 55.46875 C-23.3841305 55.55159278 -30.75093729 54.02360796 -38.8125 46.875 C-45.35704955 39.67909718 -47.84757415 31.71414882 -47.4140625 22.07421875 C-46.30017261 13.80411173 -42.04900411 7.60907654 -36 2 C-25.62077279 -5.81837115 -11.30536073 -6.98734101 0 0 Z M-36.625 12.9375 C-40.31715829 19.17197299 -40.12097538 26.01662637 -39 33 C-36.36683541 39.8118823 -31.48318132 43.90355519 -25 47 C-18.71947278 49.09350907 -12.78309596 48.71991316 -6.75 46 C-1.48205982 43.08811496 2.67489586 38.94218481 4.625 33.140625 C5.84363699 26.18423885 6.32608196 19.16942755 2.5 13 C-1.69405395 7.58060487 -7.4566144 3.59721707 -14.34765625 2.69140625 C-23.82855213 2.24123422 -30.63159887 5.52645598 -36.625 12.9375 Z " fill="#E8E8E8" transform="translate(617,497)"/>
<path d="M0 0 C0.89024368 -0.01134979 1.78048737 -0.02269958 2.69770813 -0.03439331 C4.15887054 -0.02999741 4.15887054 -0.02999741 5.64955139 -0.0255127 C6.67744278 -0.03398224 7.70533417 -0.04245178 8.76437378 -0.05117798 C12.17031648 -0.07462304 15.57580942 -0.07556833 18.98182678 -0.07434082 C21.34450462 -0.08143782 23.70718073 -0.08913613 26.06985474 -0.09741211 C31.02550547 -0.11087419 35.98099684 -0.11241787 40.93666077 -0.10656738 C47.29369171 -0.10066966 53.64995937 -0.13125878 60.00684261 -0.17168427 C64.88726943 -0.19750767 69.76751118 -0.20044352 74.6479969 -0.1967926 C76.99201438 -0.19848886 79.33603994 -0.2081796 81.67999077 -0.22593689 C84.95552326 -0.24801994 88.22949395 -0.23847784 91.50502014 -0.2208252 C92.47710419 -0.23408844 93.44918823 -0.24735168 94.45072937 -0.26101685 C100.9998469 -0.17881916 100.9998469 -0.17881916 104.27554321 2.74536133 C105.64198303 5.39440918 105.64198303 5.39440918 105.64198303 8.39440918 C68.02198303 8.39440918 30.40198303 8.39440918 -8.35801697 8.39440918 C-7.16301457 2.41939717 -6.22809182 0.03001445 0 0 Z " fill="#454A51" transform="translate(551.3580169677734,420.6055908203125)"/>
<path d="M0 0 C2.64 0 5.28 0 8 0 C9.69876483 10.23061474 11.39407534 20.46179528 13.08496857 30.69371414 C13.87021148 35.4446936 14.65664647 40.19546933 15.44580078 44.94580078 C16.20721878 49.52944354 16.96551191 54.11359323 17.72163391 58.69811249 C18.01077355 60.44779662 18.30104196 62.19729461 18.592453 63.94660187 C19.00016486 66.39523432 19.40387195 68.84449564 19.80664062 71.29394531 C19.92820023 72.01827255 20.04975983 72.74259979 20.17500305 73.48887634 C20.70417879 76.7312379 21 79.70030489 21 83 C18.03 83 15.06 83 12 83 C9.7537645 73.34801159 8.15256523 63.74265839 6.86459351 53.92666626 C6.3461779 49.97683058 5.81158394 46.02922184 5.2734375 42.08203125 C5.16720566 41.30258652 5.06097382 40.52314178 4.95152283 39.72007751 C3.87826081 31.94711142 2.59124321 24.21319308 1.16821289 16.49658203 C0.17220072 10.90418886 -0.15545968 5.68291507 0 0 Z " fill="#41454D" transform="translate(537,481)"/>
<path d="M0 0 C4.7344316 1.91391916 7.72684393 5.45368786 10 10 C10.56735892 14.65048294 10.4598631 18.09730577 8.3125 22.3125 C7.549375 23.199375 6.78625 24.08625 6 25 C5.34 25.78375 4.68 26.5675 4 27.375 C-0.8507542 30.00249186 -5.6241214 29.95286737 -11 29 C-15.33424597 26.68342026 -18.14729567 23.54598747 -20 19 C-20.72427331 14.36801952 -20.44977085 10.88288353 -18.3125 6.6875 C-12.62119093 0.07327594 -8.64072536 -1.068687 0 0 Z " fill="#EAEAEA" transform="translate(605,508)"/>
<path d="M0 0 C2.51625 -0.061875 5.0325 -0.12375 7.625 -0.1875 C8.79603271 -0.22846802 8.79603271 -0.22846802 9.99072266 -0.27026367 C15.56730025 -0.33609532 19.67863081 0.83338876 23.875 4.75 C25.52659363 8.05318727 25.44042955 10.35072662 25 14 C23.33442378 17.26946443 22.12753568 19.38441526 18.875 21.16015625 C15.12241532 22.25635966 11.55411209 22.21414152 7.6875 22.125 C3.8821875 22.063125 3.8821875 22.063125 0 22 C0 14.74 0 7.48 0 0 Z " fill="#3F444C" transform="translate(570,684)"/>
</svg>
